<?xml version="1.0" encoding="utf-8"?>
<!-- Generator: Adobe Illustrator 24.2.3, SVG Export Plug-In . SVG Version: 6.00 Build 0)  -->
<svg version="1.1" id="Layer_1" xmlns="http://www.w3.org/2000/svg" xmlns:xlink="http://www.w3.org/1999/xlink" x="0px" y="0px"
	 viewBox="0 0 240.1 143.1" style="enable-background:new 0 0 240.1 143.1;" xml:space="preserve">
<style type="text/css">
	.st0{fill:#FFFFFF;}
</style>
<g>
	<polygon class="st0" points="13.8,12.3 13.8,103.4 226.3,103.4 226.3,36.3 217.5,36.3 217.5,94.5 22.7,94.5 22.7,21.1 202,21.1 
		202,12.3 	"/>
	<g>
		<rect x="150.8" y="114.6" class="st0" width="4.2" height="12.2"/>
		<path class="st0" d="M157,114.6h3.9v2.3h0c0.8-1.8,2.5-2.5,4.5-2.5c1.7,0,3.2,0.8,3.8,2.3c1-1.6,2.6-2.3,4.3-2.3
			c3.5,0,4.3,2,4.3,5.3v7.2h-4.2v-6.6c0-1.4-0.5-2.4-1.7-2.4c-1.5,0-2.4,1.2-2.4,3.8v5.2h-4.2v-6.6c0-1.4-0.5-2.4-1.7-2.4
			c-1.5,0-2.4,1.2-2.4,3.8v5.2H157V114.6z"/>
		<path class="st0" d="M179.3,130.8h4.2v-5.7h0c0.8,1.5,2.4,2,3.9,2c3.6,0,5.6-3,5.6-6.6c0-3-1.9-6.2-5.2-6.2
			c-1.9,0-3.7,0.8-4.6,2.5h0v-2.2h-3.9V130.8z M188.7,120.6c0,1.9-1,3.3-2.6,3.3c-1.4,0-2.6-1.3-2.6-3.1c0-1.8,1-3.2,2.6-3.2
			C187.8,117.6,188.7,119,188.7,120.6"/>
		<path class="st0" d="M205.8,119.4c0-3.7-2.7-5.1-5.8-5.1c-1.8,0-3.4,0.3-4.9,0.9l0.1,2.9c1.2-0.7,2.5-0.9,3.9-0.9
			c1.5,0,2.8,0.4,2.8,2.1c-0.5-0.1-1.3-0.2-2-0.2c-2.3,0-6.3,0.4-6.3,4.2c0,2.7,2.2,3.8,4.6,3.8c1.7,0,2.9-0.7,3.9-2.2h0l0,1.9h3.8
			L205.8,119.4z M197.5,123c0-1.2,1.1-1.6,2.6-1.6c0.6,0,1.2,0,1.8,0.1c0,1.4-1,2.9-2.6,2.9C198.3,124.3,197.5,123.8,197.5,123"/>
		<path class="st0" d="M213.8,114.3c-4,0-7.1,2.3-7.1,6.4c0,4,3.1,6.4,7.1,6.4c1.1,0,2.4-0.1,4.1-0.8l-0.7-2.9
			c-0.7,0.4-1.7,0.6-2.6,0.6c-1.8,0-3.5-1.3-3.5-3.2c0-2.1,1.4-3.4,3.2-3.4c1,0,1.7,0.1,2.6,0.4v-3
			C215.9,114.5,214.9,114.3,213.8,114.3"/>
		<path class="st0" d="M143.2,113.7c-1.3,0-2.4,1.1-2.4,2.4c0,1.3,1.1,2.4,2.4,2.4c1.3,0,2.4-1.1,2.4-2.4
			C145.5,114.8,144.5,113.7,143.2,113.7 M149,126.9h-15.5v-15.4H149V126.9z"/>
		<path class="st0" d="M152.9,107.9c1.3,0,2.3,1,2.3,2.3c0,1.3-1,2.3-2.3,2.3c-1.3,0-2.3-1.1-2.3-2.3
			C150.6,108.9,151.7,107.9,152.9,107.9"/>
		<path class="st0" d="M226.4,124.2c-0.3,0.1-0.6,0.1-0.9,0.1c-1.3,0-1.7-0.8-1.7-2.2v-4.2h2.6v-3h-2.6v-4.3l-4.2,1.3v3h-1.5v3h1.5
			v4.7c0,2.9,0.9,4.6,4.7,4.6c0.8,0,1.5-0.1,2.1-0.2V124.2z"/>
	</g>
	<g>
		<path class="st0" d="M17,115.3h1.4l3.3,7.6h-1.9l-0.7-1.6h-3l-0.6,1.6h-1.8L17,115.3z M17.7,117.6l-0.9,2.4h1.9L17.7,117.6z"/>
		<path class="st0" d="M24.4,115.3h2.3l3.2,5.3h0v-5.3h1.7v7.6h-2.2l-3.3-5.4h0v5.4h-1.7V115.3z"/>
		<path class="st0" d="M40.3,115.3h5.2v1.5H42v1.4h3.3v1.5H42v1.5h3.7v1.5h-5.4V115.3z"/>
		<path class="st0" d="M49,115.3h1.7v6.1h3.1v1.5H49V115.3z"/>
		<path class="st0" d="M56.7,115.3h5.2v1.5h-3.5v1.4h3.3v1.5h-3.3v1.5H62v1.5h-5.4V115.3z"/>
		<path class="st0" d="M65.3,115.3h2.5l1.8,5h0l1.8-5h2.5v7.6h-1.7v-5.8h0l-2,5.8h-1.3l-1.9-5.8h0v5.8h-1.7V115.3z"/>
		<path class="st0" d="M77.5,115.3h5.2v1.5h-3.5v1.4h3.3v1.5h-3.3v1.5h3.7v1.5h-5.4V115.3z"/>
		<path class="st0" d="M86.1,115.3h2.3l3.2,5.3h0v-5.3h1.7v7.6h-2.2l-3.3-5.4h0v5.4h-1.7V115.3z"/>
		<path class="st0" d="M98.3,116.8h-2.2v-1.5h6v1.5h-2.2v6.1h-1.7V116.8z"/>
		<path class="st0" d="M109.6,119.1c0-0.6,0.1-1.2,0.3-1.7c0.2-0.5,0.5-0.9,0.9-1.3c0.4-0.3,0.8-0.6,1.3-0.8c0.5-0.2,1-0.3,1.6-0.3
			c0.6,0,1.1,0.1,1.6,0.3s0.9,0.5,1.3,0.8c0.4,0.3,0.7,0.8,0.9,1.3c0.2,0.5,0.3,1,0.3,1.7s-0.1,1.2-0.3,1.7
			c-0.2,0.5-0.5,0.9-0.9,1.3c-0.4,0.3-0.8,0.6-1.3,0.8c-0.5,0.2-1,0.3-1.6,0.3c-0.6,0-1.1-0.1-1.6-0.3c-0.5-0.2-0.9-0.5-1.3-0.8
			c-0.4-0.3-0.7-0.8-0.9-1.3C109.7,120.3,109.6,119.8,109.6,119.1z M111.3,119.1c0,0.4,0.1,0.7,0.2,1c0.1,0.3,0.3,0.6,0.5,0.8
			c0.2,0.2,0.5,0.4,0.7,0.5c0.3,0.1,0.6,0.2,1,0.2c0.4,0,0.7-0.1,1-0.2c0.3-0.1,0.5-0.3,0.7-0.5c0.2-0.2,0.4-0.5,0.5-0.8
			c0.1-0.3,0.2-0.6,0.2-1c0-0.4-0.1-0.7-0.2-1c-0.1-0.3-0.3-0.6-0.5-0.8c-0.2-0.2-0.5-0.4-0.7-0.5c-0.3-0.1-0.6-0.2-1-0.2
			c-0.4,0-0.7,0.1-1,0.2c-0.3,0.1-0.5,0.3-0.7,0.5c-0.2,0.2-0.4,0.5-0.5,0.8C111.4,118.5,111.3,118.8,111.3,119.1z"/>
		<path class="st0" d="M120.9,115.3h5.1v1.5h-3.4v1.5h3.2v1.5h-3.2v3h-1.7V115.3z"/>
	</g>
	<g>
		<g>
			<g>
				<polygon class="st0" points="34,32.8 67.2,32.8 67.2,40.6 42.9,40.6 42.9,53.3 66,53.3 66,60.8 42.9,60.8 42.9,74.9 68.5,74.9 
					68.5,82.9 34,82.9 				"/>
				<path class="st0" d="M108.2,43.3c-0.9-1.2-2.3-2.3-4-3.1c-1.7-0.8-3.5-1.2-5.2-1.2c-1,0-2.1,0.1-3.1,0.4c-1,0.3-2,0.7-2.8,1.2
					c-0.9,0.5-1.5,1.2-2.1,2.1c-0.5,0.9-0.8,1.9-0.8,3.1c0,1.1,0.2,2.1,0.7,2.9c0.5,0.8,1.1,1.5,1.9,2c0.8,0.6,1.8,1.1,3,1.5
					c1.2,0.4,2.5,0.8,3.9,1.3c1.6,0.5,3.3,1.1,5,1.8c1.7,0.7,3.3,1.5,4.7,2.6c1.4,1.1,2.6,2.5,3.5,4.1c0.9,1.6,1.4,3.7,1.4,6.1
					c0,2.7-0.5,5-1.5,7c-1,2-2.3,3.7-4,5c-1.7,1.3-3.6,2.3-5.8,3c-2.2,0.7-4.6,1-7,1c-3.3,0-6.5-0.6-9.6-1.8c-3.1-1.2-5.7-3-7.7-5.3
					l6.4-5.9c1.2,1.7,2.9,3,4.9,4c2.1,1,4.1,1.5,6.1,1.5c1,0,2.1-0.1,3.2-0.4c1.1-0.3,2.1-0.7,2.9-1.3c0.9-0.6,1.6-1.4,2.1-2.3
					c0.5-0.9,0.8-2.1,0.8-3.4c0-1.3-0.3-2.4-0.9-3.3c-0.6-0.9-1.4-1.6-2.5-2.3c-1-0.6-2.3-1.2-3.7-1.7c-1.4-0.5-2.9-1-4.5-1.5
					c-1.5-0.5-3-1-4.5-1.7c-1.5-0.7-2.9-1.5-4.1-2.6c-1.2-1.1-2.2-2.4-2.9-4c-0.8-1.6-1.1-3.5-1.1-5.9c0-2.5,0.5-4.7,1.6-6.6
					c1.1-1.8,2.5-3.4,4.2-4.6c1.7-1.2,3.7-2.1,5.9-2.7c2.2-0.6,4.4-0.9,6.7-0.9c2.6,0,5.1,0.4,7.8,1.3c2.6,0.9,4.9,2.2,6.8,4
					L108.2,43.3z"/>
				<path class="st0" d="M151.7,48.5c0-1.3-0.2-2.6-0.7-3.7c-0.4-1.2-1.1-2.2-1.9-3.1c-0.9-0.9-1.9-1.6-3-2.2
					c-1.2-0.5-2.5-0.8-4-0.8c-2.9,0-5.2,0.9-7,2.8c-1.8,1.9-2.7,4.3-2.7,7.2c0,1.4,0.2,2.7,0.7,3.9c0.5,1.2,1.1,2.2,2,3.1
					c0.9,0.8,1.9,1.5,3,2c1.2,0.5,2.4,0.7,3.9,0.7c1.4,0,2.7-0.2,3.9-0.7c1.2-0.5,2.2-1.1,3.1-2c0.9-0.9,1.5-1.9,2-3.1
					C151.5,51.3,151.7,50,151.7,48.5 M132.3,82.9l12.9-18.6l-0.1-0.1c-0.7,0.3-1.6,0.6-2.6,0.7c-1,0.1-1.9,0.2-2.8,0.2
					c-2.2,0-4.3-0.4-6.2-1.2c-1.9-0.8-3.6-2-5.1-3.4c-1.5-1.4-2.6-3.1-3.4-5.1c-0.8-2-1.2-4.1-1.2-6.3c0-2.6,0.5-5,1.4-7.2
					c0.9-2.2,2.2-4,3.9-5.5c1.6-1.5,3.6-2.7,5.8-3.5c2.2-0.8,4.6-1.2,7.2-1.2c2.6,0,5,0.4,7.3,1.3c2.2,0.9,4.2,2.1,5.9,3.6
					c1.7,1.6,2.9,3.4,3.9,5.5c0.9,2.1,1.4,4.3,1.4,6.7c0,1.4-0.1,2.7-0.4,4c-0.2,1.2-0.6,2.4-1,3.6c-0.5,1.2-1,2.3-1.6,3.5
					c-0.6,1.2-1.4,2.4-2.2,3.7l-12.5,19.4H132.3z"/>
				<path class="st0" d="M197.5,48.5c0-1.3-0.2-2.6-0.7-3.7c-0.4-1.2-1.1-2.2-1.9-3.1c-0.9-0.9-1.9-1.6-3-2.2
					c-1.2-0.5-2.5-0.8-4-0.8c-2.9,0-5.2,0.9-7,2.8c-1.8,1.9-2.7,4.3-2.7,7.2c0,1.4,0.2,2.7,0.7,3.9c0.5,1.2,1.1,2.2,2,3.1
					c0.9,0.8,1.9,1.5,3,2c1.2,0.5,2.4,0.7,3.9,0.7c1.4,0,2.7-0.2,3.9-0.7c1.2-0.5,2.2-1.1,3.1-2c0.9-0.9,1.5-1.9,2-3.1
					C197.3,51.3,197.5,50,197.5,48.5 M178.1,82.9L191,64.3l-0.1-0.1c-0.7,0.3-1.6,0.6-2.6,0.7c-1,0.1-1.9,0.2-2.8,0.2
					c-2.2,0-4.3-0.4-6.2-1.2c-1.9-0.8-3.6-2-5.1-3.4c-1.5-1.4-2.6-3.1-3.4-5.1c-0.8-2-1.2-4.1-1.2-6.3c0-2.6,0.5-5,1.4-7.2
					c0.9-2.2,2.2-4,3.9-5.5c1.6-1.5,3.6-2.7,5.8-3.5c2.2-0.8,4.6-1.2,7.2-1.2c2.6,0,5,0.4,7.3,1.3c2.2,0.9,4.2,2.1,5.8,3.6
					c1.7,1.6,2.9,3.4,3.9,5.5c0.9,2.1,1.4,4.3,1.4,6.7c0,1.4-0.1,2.7-0.4,4c-0.2,1.2-0.6,2.4-1,3.6c-0.5,1.2-1,2.3-1.6,3.5
					c-0.6,1.2-1.4,2.4-2.2,3.7l-12.5,19.4H178.1z"/>
			</g>
		</g>
	</g>
</g>
</svg>
